<?xml version="1.0" encoding="utf-8"?>
<!-- Generator: Adobe Illustrator 25.2.1, SVG Export Plug-In . SVG Version: 6.00 Build 0)  -->
<svg version="1.1" id="Layer_1" xmlns="http://www.w3.org/2000/svg" xmlns:xlink="http://www.w3.org/1999/xlink" x="0px" y="0px"
	 viewBox="0 0 407 412.3" style="enable-background:new 0 0 407 412.3;" xml:space="preserve">
<style type="text/css">
	.st0{fill:#5988B2;}
	.st1{fill:none;stroke:#000000;stroke-width:26;stroke-linecap:round;stroke-miterlimit:10;}
	.st2{fill:none;stroke:#000000;stroke-width:21;stroke-linecap:round;stroke-miterlimit:10;}
	.st3{fill:none;stroke:#FFFFFF;stroke-width:23;stroke-linecap:round;stroke-miterlimit:10;}
	.st4{fill:none;stroke:#FFFFFF;stroke-width:21;stroke-linecap:round;stroke-miterlimit:10;}
</style>
<g>
	<circle class="st0" cx="208.2" cy="210.5" r="185.2"/>
	<path class="st1" d="M105.9,92l-9.7,195.1c17.6,6.4,59.6,18.8,104.9,2.4c11.3-4.1,20.9-9.3,28.9-14.6"/>
	<path class="st0" d="M325.7,189.5"/>
	<line class="st2" x1="201.2" y1="322.8" x2="218.2" y2="117.3"/>
	<line class="st2" x1="219.7" y1="119" x2="275.8" y2="219.3"/>
	<line class="st2" x1="278.1" y1="219.5" x2="326.8" y2="124.5"/>
	<line class="st2" x1="328.6" y1="129.8" x2="339.3" y2="306.8"/>
	<path class="st3" d="M115.1,78.2l-4.9,195.3c17.7,6,60,17.4,104.9-0.1c11.2-4.4,20.7-9.8,28.6-15.3"/>
	<line class="st4" x1="210.2" y1="316.3" x2="227.3" y2="110.7"/>
	<line class="st4" x1="230.1" y1="108.7" x2="286.2" y2="208.9"/>
	<line class="st4" x1="289" y1="204.9" x2="337.7" y2="110"/>
	<line class="st4" x1="339.5" y1="117.2" x2="350.2" y2="294.1"/>
</g>
</svg>
