<?xml version="1.0" encoding="utf-8"?>
<!-- Generator: Adobe Illustrator 25.2.1, SVG Export Plug-In . SVG Version: 6.00 Build 0)  -->
<svg version="1.1" id="Layer_1" xmlns="http://www.w3.org/2000/svg" xmlns:xlink="http://www.w3.org/1999/xlink" x="0px" y="0px"
	 viewBox="0 0 608 617.2" style="enable-background:new 0 0 608 617.2;" xml:space="preserve">
<style type="text/css">
	.st0{fill:none;stroke:#666666;stroke-width:4;stroke-linecap:round;stroke-linejoin:round;stroke-miterlimit:10;}
	.st1{stroke:#FFFFFF;stroke-width:10;stroke-miterlimit:10;}
	.st2{fill:#00ACFF;stroke:#FFFFFF;stroke-width:10;stroke-miterlimit:10;}
	.st3{fill:#666666;}
	.st4{fill:#FFFFFF;}
</style>
<path class="st0" d="M18.7,445.7"/>
<path class="st0" d="M83.6,451"/>
<path class="st0" d="M164.3,580.8"/>
<path class="st0" d="M150.3,579.1"/>
<path class="st0" d="M87.1,163.3"/>
<g>
	<path class="st1" d="M362.8,592.5H244.5c-123.6,0-223.8-100.2-223.8-223.8V250.5C20.8,126.9,121,26.8,244.5,26.8h118.2
		c123.6,0,223.8,100.2,223.8,223.8v118.2C586.5,492.3,486.3,592.5,362.8,592.5z"/>
	<circle class="st2" cx="303.6" cy="309.6" r="244.7"/>
	<g>
		<g>
			<path class="st3" d="M274.7,468.6c7.6-47.8,15.6-95.5,25.6-142.8c5.4-25.8,11.1-51.7,19.5-76.7c1.3-3.8,2.7-7.5,4.1-11.3
				c0.6-1.6,2.2-4.7-0.8,1.8c0.3-0.8,0.7-1.5,1-2.3c0.6-1.4,1.3-2.7,2-4.1c1-2,2.2-4,3.4-5.9c2.2-3.5-3.6,3.9-1.1,1.4
				c0.5-0.5,1.1-1.1,1.6-1.6c2.1-2.4-4.7,3.1-2.1,1.6c3.1-1.7-4,1.4-2.7,1c3-0.9-4.9,0.4-3.3,0.4c1.7-0.1,2.5,0.9-3.6-0.6
				c0.3,0.1,0.6,0.2,0.9,0.2c-3.5-1.6-4.4-2-2.9-1.1c1.4,0.9,0.7,0.4-2.2-1.8c0.1,0.3,3.9,4.5,1.4,1.2c-2.2-3,0.8,1.4,1.3,2.2
				c2,3.3,3.6,6.8,5.2,10.4c1.6,3.5-1.6-4-0.2-0.4c0.3,0.7,0.5,1.3,0.8,2c0.8,2,1.6,4.1,2.3,6.1c1.4,4,2.8,8.1,4,12.1
				c4.8,15.5,8.6,31.2,10.9,47.3c0.8,5.1-0.4-3.8,0.1,1.1c0.2,1.4,0.3,2.7,0.5,4.1c0.2,2.1,0.5,4.1,0.7,6.2c0.5,5.1,1,10.3,1.8,15.4
				c1.6,10.5,8.7,20.2,20.3,20.3c15.6,0.1,21.1-15.7,24.5-28.1c3.5-12.8,6.1-25.9,9-38.8c3.2-14.4,6.4-28.8,11-42.8
				c0.9-2.8,1.9-5.5,3-8.3c1.5-4-1.9,4-0.2,0.4c0.7-1.3,1.3-2.7,2-4c0.5-0.8,1-1.6,1.5-2.4c2.2-3.8-3,3.3-0.7,0.9
				c1.4-1.4,3.5-2.3-1.8,1.1c3.5-2.3-4.3,1.3-1.8,0.6c-5.4,1.4-5.3,0.5-3.6,0.5c2.4,0-6-1.1-3.8-0.5c3.4,0.9-4.9-2.5-2.5-1.1
				c3.2,1.8-2.9-2.8-1.9-1.6c0.6,0.6,1.2,1.2,1.9,1.8c2.8,2.8-3.1-4.6-0.9-1.1c0.7,1.1,1.4,2.1,2,3.2c1.5,2.6,2.8,5.4,4,8.2
				c1.4,3.1-2-4.9-0.7-1.7c0.4,0.9,0.8,1.9,1.1,2.8c0.8,2.1,1.5,4.1,2.3,6.2c1.7,4.8,3.2,9.5,4.6,14.4c3.7,12.6,6.9,25.4,9.8,38.2
				c9.6,41.8,17,84,24,126.3c2.2,13.7,4.4,27.4,6.5,41.1c1.5,9.3,13.6,15.3,22.1,12.6c10.2-3.3,14.1-12.1,12.6-22.1
				c-7.5-48.8-15.6-97.5-25.8-145.8c-5.4-25.8-11.1-52-20.2-76.9c-4.7-12.9-10.6-29.4-23.4-36.6c-10.5-5.9-23.2-3-31,6.1
				c-9,10.6-13.2,24.9-16.8,38.1c-7.4,26.4-10.8,54-19.6,80c-1.2,3.7,1.3-2.5,0.8-1.7c-0.4,0.5-0.8,1.4-1,2c-1,2.5,3.8-4,1.6-2.1
				c5.4-4.6,12.9-6.5,19.8-2.5c5.2,3.1,7.3,8.4,5.5,5.2c3.5,6.2,1.4,4.1,1.2,2.5c-0.1-1-0.4-2.1-0.6-3.1c-0.6-3.1,0.5,5,0.2,1.6
				c-0.1-0.9-0.2-1.9-0.3-2.8c-0.2-2.2-0.5-4.3-0.7-6.5c-2.1-19.7-5.3-39-10.7-58.1c-4.6-16.2-9.7-33.4-18.5-47.8
				c-6.8-11.3-18.5-21.1-32.4-16.9c-14.1,4.2-20.7,19.5-25.7,31.9c-8.3,20.4-13.5,42.1-18.5,63.5c-9.6,41.6-17.2,83.7-24.3,125.8
				c-2.4,14.3-4.7,28.5-7,42.8c-1.5,9.3,2.4,19.8,12.6,22.1C261.2,483.2,273.1,478.6,274.7,468.6L274.7,468.6z"/>
		</g>
	</g>
	<g>
		<g>
			<path class="st4" d="M281.7,457.1c7.6-47.8,15.6-95.5,25.6-142.8c5.4-25.8,11.1-51.7,19.5-76.7c1.3-3.8,2.7-7.5,4.1-11.3
				c0.6-1.6,2.2-4.7-0.8,1.8c0.3-0.8,0.7-1.5,1-2.3c0.6-1.4,1.3-2.7,2-4.1c1-2,2.2-4,3.4-5.9c2.2-3.5-3.6,3.9-1.1,1.4
				c0.5-0.5,1.1-1.1,1.6-1.6c2.1-2.4-4.7,3.1-2.1,1.6c3.1-1.7-4,1.4-2.7,1c3-0.9-4.9,0.4-3.3,0.4c1.7-0.1,2.5,0.9-3.6-0.6
				c0.3,0.1,0.6,0.2,0.9,0.2c-3.5-1.6-4.4-2-2.9-1.1c1.4,0.9,0.7,0.4-2.2-1.8c0.1,0.3,3.9,4.5,1.4,1.2c-2.2-3,0.8,1.4,1.3,2.2
				c2,3.3,3.6,6.8,5.2,10.4c1.6,3.5-1.6-4-0.2-0.4c0.3,0.7,0.5,1.3,0.8,2c0.8,2,1.6,4.1,2.3,6.1c1.4,4,2.8,8.1,4,12.1
				c4.8,15.5,8.6,31.2,10.9,47.3c0.8,5.1-0.4-3.8,0.1,1.1c0.2,1.4,0.3,2.7,0.5,4.1c0.2,2.1,0.5,4.1,0.7,6.2c0.5,5.1,1,10.3,1.8,15.4
				c1.6,10.5,8.7,20.2,20.3,20.3c15.6,0.1,21.1-15.7,24.5-28.1c3.5-12.8,6.1-25.9,9-38.8c3.2-14.4,6.4-28.8,11-42.8
				c0.9-2.8,1.9-5.5,3-8.3c1.5-4-1.9,4-0.2,0.4c0.7-1.3,1.3-2.7,2-4c0.5-0.8,1-1.6,1.5-2.4c2.2-3.8-3,3.3-0.7,0.9
				c1.4-1.4,3.5-2.3-1.8,1.1c3.5-2.3-4.3,1.3-1.8,0.6c-5.4,1.4-5.3,0.5-3.6,0.5c2.4,0-6-1.1-3.8-0.5c3.4,0.9-4.9-2.5-2.5-1.1
				c3.2,1.8-2.9-2.8-1.9-1.6c0.6,0.6,1.2,1.2,1.9,1.8c2.8,2.8-3.1-4.6-0.9-1.1c0.7,1.1,1.4,2.1,2,3.2c1.5,2.6,2.8,5.4,4,8.2
				c1.4,3.1-2-4.9-0.7-1.7c0.4,0.9,0.8,1.9,1.1,2.8c0.8,2.1,1.5,4.1,2.3,6.2c1.7,4.8,3.2,9.5,4.6,14.4c3.7,12.6,6.9,25.4,9.8,38.2
				c9.6,41.8,17,84,24,126.3c2.2,13.7,4.4,27.4,6.5,41.1c1.5,9.3,13.6,15.3,22.1,12.6c10.2-3.3,14.1-12.1,12.6-22.1
				c-7.5-48.7-15.6-97.5-25.7-145.7c-5.4-25.8-11.1-52-20.2-76.9c-4.7-12.9-10.6-29.4-23.4-36.6c-10.5-5.9-23.2-3-31,6.1
				c-9,10.6-13.2,24.9-16.8,38.1c-7.4,26.4-10.8,54-19.6,80c-1.2,3.7,1.3-2.5,0.8-1.7c-0.4,0.5-0.8,1.4-1,2c-1,2.5,3.8-4,1.6-2.1
				c5.4-4.6,12.9-6.5,19.8-2.5c5.2,3.1,7.3,8.4,5.5,5.2c3.5,6.2,1.4,4.1,1.2,2.5c-0.1-1-0.4-2.1-0.6-3.1c-0.6-3.1,0.5,5,0.2,1.6
				c-0.1-0.9-0.2-1.9-0.3-2.8c-0.2-2.2-0.5-4.3-0.7-6.5c-2.1-19.7-5.3-39-10.7-58.1c-4.6-16.2-9.7-33.4-18.5-47.9
				c-6.8-11.3-18.5-21.1-32.4-16.9c-14.1,4.2-20.7,19.5-25.7,31.9c-8.3,20.4-13.5,42.1-18.5,63.5c-9.6,41.6-17.2,83.7-24.3,125.8
				c-2.4,14.3-4.7,28.5-7,42.8c-1.5,9.3,2.4,19.8,12.6,22.1C268.2,471.7,280.1,467.1,281.7,457.1L281.7,457.1z"/>
		</g>
	</g>
	<g>
		<g>
			<path class="st3" d="M193.4,99.1c-18.8,69.4-37,139.6-61.4,207.3c-1.7,4.6-3.4,9.3-5.2,13.9c-0.7,1.8-1.5,3.6-2.2,5.5
				c-1.2,3,3.1-7.1,1.1-2.7c-0.4,1-0.8,1.9-1.2,2.8c-1.4,3.2-3.1,6.3-4.6,9.4c-6.3,13.3-8,28.3-0.1,41.4
				c8.4,13.9,24.8,20.7,40.1,23.6c14.8,2.7,30,3.6,45,3.3c34.5-0.7,68.8-6.5,101.1-18.8c6-2.3,11-5.3,14.3-11
				c3-5.1,4.3-12.7,2.4-18.5c-3.7-11.4-17-21.6-29.5-16.8c-18.9,7.2-38.1,11.6-58,15.2c8.2-1.5,1.8-0.2-0.2,0
				c-1.7,0.2-3.3,0.4-5,0.5c-1.3,0.1-2.5,0.2-3.8,0.3c-4.1,0.3-8.3,0.6-12.4,0.8c-12.1,0.6-24.3,0.6-36.4-0.6
				c-1.2-0.1-3.5-0.8-4.7-0.5c-0.1,0,6.8,1,3.3,0.4c-0.7-0.1-1.3-0.2-2-0.3c-3.2-0.5-6.4-1.2-9.5-2.1c-1.2-0.3-2.3-0.7-3.5-1.1
				c-0.7-0.2-1.4-0.5-2-0.8c-2.6-0.9,6.2,3,3,1.2c-0.9-0.5-1.9-1-2.8-1.5c-0.4-0.3-0.8-0.6-1.3-0.8c-3-1.7,4.8,4.4,2.5,2
				c-0.8-0.9-3.6-4.1-0.5-0.1c3.3,4.3,0.8,0.4,0.1-0.4c3.4,3.6,2.2,6.2,1.5,2.9c0.2,1.1,0.3,2.1,0.5,3.2c0.1-2.1,0.1-2.1-0.1,0.2
				c-0.1,0.6-0.1,1.1-0.2,1.7c0.2-0.9,0.5-1.8,0.8-2.6c0.1,0.7-2.7,5.5-0.8,2.1c1.5-2.8,2.9-5.7,4.2-8.6c4.2-9.4,8-18.9,11.5-28.5
				c9-24.8,16.8-50.1,24.4-75.3c13.3-44.4,25.6-89.1,37.7-133.9c3.3-12.1-4.1-26.6-16.8-29.5C210.3,79.4,196.9,86.1,193.4,99.1
				L193.4,99.1z"/>
		</g>
	</g>
	<g>
		<g>
			<path class="st4" d="M207.7,85.3c-18.8,69.4-37,139.6-61.4,207.3c-1.7,4.6-3.4,9.3-5.2,13.9c-0.7,1.8-1.5,3.6-2.2,5.5
				c-1.2,3,3.1-7.1,1.1-2.7c-0.4,1-0.8,1.9-1.2,2.8c-1.4,3.2-3.1,6.3-4.6,9.4c-6.3,13.3-8,28.3-0.1,41.4
				c8.4,13.9,24.8,20.7,40.1,23.6c14.8,2.7,30,3.6,45,3.3c34.5-0.7,68.8-6.5,101.1-18.8c6-2.3,11-5.3,14.3-11
				c3-5.1,4.3-12.7,2.4-18.5c-3.7-11.4-17-21.6-29.5-16.8c-18.9,7.2-38.1,11.6-58,15.2c8.2-1.5,1.8-0.2-0.2,0
				c-1.7,0.2-3.3,0.4-5,0.5c-1.3,0.1-2.5,0.2-3.8,0.3c-4.1,0.3-8.3,0.6-12.4,0.8c-12.1,0.6-24.3,0.6-36.4-0.6
				c-1.2-0.1-3.5-0.8-4.7-0.5c-0.1,0,6.8,1,3.3,0.4c-0.7-0.1-1.3-0.2-2-0.3c-3.2-0.5-6.4-1.2-9.5-2.1c-1.2-0.3-2.3-0.7-3.5-1.1
				c-0.7-0.2-1.4-0.5-2-0.8c-2.6-0.9,6.2,3,3,1.2c-0.9-0.5-1.9-1-2.8-1.5c-0.4-0.3-0.8-0.6-1.3-0.8c-3-1.7,4.8,4.4,2.5,2
				c-0.8-0.9-3.6-4.1-0.5-0.1c3.3,4.3,0.8,0.4,0.1-0.4c3.4,3.6,2.2,6.2,1.5,2.9c0.2,1.1,0.3,2.1,0.5,3.2c0.1-2.1,0.1-2.1-0.1,0.2
				c-0.1,0.6-0.1,1.1-0.2,1.7c0.2-0.9,0.5-1.8,0.8-2.6c0.1,0.7-2.7,5.5-0.8,2.1c1.5-2.8,2.9-5.7,4.2-8.6c4.2-9.4,8-18.9,11.5-28.5
				c9-24.8,16.8-50.1,24.4-75.3c13.3-44.4,25.6-89.1,37.7-133.9c3.3-12.1-4.1-26.6-16.8-29.5C224.6,65.7,211.2,72.4,207.7,85.3
				L207.7,85.3z"/>
		</g>
	</g>
</g>
</svg>
